<svg xmlns="http://www.w3.org/2000/svg" viewBox="0 0 64 64" fill="none">
  <!-- Background circle -->
  <circle cx="32" cy="32" r="30" fill="#0f172a" stroke="#1e293b" stroke-width="2"/>
  <!-- Gear teeth -->
  <path d="M32 8 L34.5 14 L39.5 12 L39.5 18 L45 18 L43 23 L48 26 L44.5 30.5 L48 35 L43 38 L45 43 L39.5 43 L39.5 49 L34.5 47 L32 53 L29.5 47 L24.5 49 L24.5 43 L19 43 L21 38 L16 35 L19.5 30.5 L16 26 L21 23 L19 18 L24.5 18 L24.5 12 L29.5 14 Z" fill="#1e40af" opacity="0.4"/>
  <!-- Outer ring -->
  <circle cx="32" cy="30.5" r="14" stroke="#3b82f6" stroke-width="2" fill="none"/>
  <!-- Inner circle -->
  <circle cx="32" cy="30.5" r="8" fill="#1d4ed8" opacity="0.6"/>
  <!-- AI brain nodes -->
  <circle cx="32" cy="23" r="2.5" fill="#60a5fa"/>
  <circle cx="38.5" cy="27.5" r="2.5" fill="#60a5fa"/>
  <circle cx="38.5" cy="33.5" r="2.5" fill="#60a5fa"/>
  <circle cx="32" cy="38" r="2.5" fill="#60a5fa"/>
  <circle cx="25.5" cy="33.5" r="2.5" fill="#60a5fa"/>
  <circle cx="25.5" cy="27.5" r="2.5" fill="#60a5fa"/>
  <!-- Connecting lines -->
  <line x1="32" y1="23" x2="38.5" y2="27.5" stroke="#3b82f6" stroke-width="1" opacity="0.7"/>
  <line x1="38.5" y1="27.5" x2="38.5" y2="33.5" stroke="#3b82f6" stroke-width="1" opacity="0.7"/>
  <line x1="38.5" y1="33.5" x2="32" y2="38" stroke="#3b82f6" stroke-width="1" opacity="0.7"/>
  <line x1="32" y1="38" x2="25.5" y2="33.5" stroke="#3b82f6" stroke-width="1" opacity="0.7"/>
  <line x1="25.5" y1="33.5" x2="25.5" y2="27.5" stroke="#3b82f6" stroke-width="1" opacity="0.7"/>
  <line x1="25.5" y1="27.5" x2="32" y2="23" stroke="#3b82f6" stroke-width="1" opacity="0.7"/>
  <!-- Cross connections -->
  <line x1="32" y1="23" x2="38.5" y2="33.5" stroke="#3b82f6" stroke-width="0.75" opacity="0.4"/>
  <line x1="38.5" y1="27.5" x2="32" y2="38" stroke="#3b82f6" stroke-width="0.75" opacity="0.4"/>
  <line x1="32" y1="23" x2="25.5" y2="33.5" stroke="#3b82f6" stroke-width="0.75" opacity="0.4"/>
  <!-- Center dot -->
  <circle cx="32" cy="30.5" r="2" fill="#93c5fd"/>
  <!-- IQ text -->
  <text x="32" y="56" text-anchor="middle" font-family="DM Sans, sans-serif" font-size="7" font-weight="700" fill="#94a3b8" letter-spacing="2">IQ</text>
</svg>
